<svg xmlns="http://www.w3.org/2000/svg" version="1.1" xmlns:xlink="http://www.w3.org/1999/xlink" xmlns:svgjs="http://svgjs.com/svgjs" width="1000" height="1000"><g transform="matrix(1,0,0,1,0,164)"><svg xmlns="http://www.w3.org/2000/svg" version="1.1" xmlns:xlink="http://www.w3.org/1999/xlink" xmlns:svgjs="http://svgjs.com/svgjs" width="100%" height="672"><svg version="1.1" id="Layer_1" xmlns="http://www.w3.org/2000/svg" xmlns:xlink="http://www.w3.org/1999/xlink" x="0px" y="0px" width="100%" viewBox="0 0 508 672" enable-background="new 0 0 508 672" xml:space="preserve">
<path fill="#FDFEFE" opacity="1.000000" stroke="none" d="
M509.000000,260.000000 
	C509.000000,398.000000 509.000000,535.500000 509.000000,673.000000 
	C339.666656,673.000000 170.333328,673.000000 1.000000,673.000000 
	C1.000000,449.000000 1.000000,225.000000 1.000000,1.000000 
	C170.333328,1.000000 339.666656,1.000000 509.000000,1.000000 
	C509.000000,87.166664 509.000000,173.333328 509.000000,260.000000 
M309.500000,29.198154 
	C231.514984,29.197971 153.529953,29.196659 75.544937,29.198658 
	C61.716328,29.199013 55.308540,35.543785 55.307106,49.312183 
	C55.298359,133.296051 55.297779,217.279922 55.310802,301.263794 
	C55.312916,314.908569 61.559940,321.193542 75.096962,321.194489 
	C194.574020,321.202942 314.051086,321.202881 433.528137,321.195404 
	C447.086823,321.194550 453.306213,314.888458 453.306091,301.226776 
	C453.305450,217.409531 453.303650,133.592300 453.301544,49.775055 
	C453.301178,35.414181 447.015503,29.200033 432.476562,29.199074 
	C391.817719,29.196390 351.158844,29.198231 309.500000,29.198154 
M74.560646,472.727203 
	C54.296516,473.550171 38.232758,481.944550 30.165373,500.949707 
	C21.246157,521.961548 22.842648,542.944275 39.258430,559.772888 
	C56.767025,577.721863 78.526382,578.264526 101.342209,570.068726 
	C104.764511,573.893127 108.204285,577.931091 111.894852,581.725159 
	C112.820320,582.676575 114.779442,583.582947 115.872871,583.245178 
	C120.743393,581.740906 125.472221,579.777893 130.863434,577.750916 
	C126.336304,572.541748 122.312157,567.719971 118.064262,563.104187 
	C115.942520,560.798645 115.558495,559.363098 117.863274,556.539673 
	C131.856613,539.397583 132.003906,509.166351 118.647408,491.826538 
	C107.703011,477.618225 92.869606,472.403015 74.560646,472.727203 
M314.561401,479.804840 
	C303.076202,473.009674 290.480499,471.255798 277.637268,473.198364 
	C235.226425,479.613281 227.187790,524.853821 242.804993,551.642883 
	C250.871094,565.479126 263.626038,572.523315 279.472076,574.299133 
	C299.628906,576.557983 316.473785,570.841003 328.608612,553.985474 
	C336.261322,543.355713 338.185486,531.072388 337.128418,518.398010 
	C335.792511,502.380707 329.299072,489.039795 314.561401,479.804840 
M180.775635,414.558136 
	C184.099716,433.536774 194.426193,446.699829 213.143173,452.266724 
	C232.344330,457.977631 250.416183,455.333130 265.104034,441.176544 
	C279.070129,427.715546 282.101959,410.316223 277.909637,391.965698 
	C272.914368,370.100372 259.181152,357.736206 235.799713,355.167114 
	C197.945908,351.007812 175.216431,380.169067 180.775635,414.558136 
M164.136597,497.500000 
	C164.136597,489.746277 164.136597,481.992584 164.136597,474.154541 
	C156.898651,474.154541 150.320877,474.154541 143.849960,474.154541 
	C143.609558,474.719635 143.374039,475.015472 143.373306,475.311920 
	C143.336304,490.132904 143.205719,504.954956 143.343216,519.774475 
	C143.424911,528.579346 143.345520,537.450134 144.383759,546.166748 
	C145.994141,559.686951 154.042984,568.424805 166.891632,572.628601 
	C175.766800,575.532288 184.871567,575.647522 193.985718,573.899048 
	C210.138550,570.800415 220.878845,558.712891 221.219299,542.399292 
	C221.677704,520.434143 221.609512,498.457886 221.739960,476.486206 
	C221.744598,475.704376 221.457870,474.920807 221.308075,474.143921 
	C214.499771,474.143921 207.912949,474.143921 200.963058,474.143921 
	C200.963058,476.032867 200.963043,477.663269 200.963043,479.293640 
	C200.962921,498.945099 201.036850,518.596924 200.937515,538.247864 
	C200.867569,552.085876 189.614960,560.141785 176.417160,555.987488 
	C168.371857,553.454956 164.315445,547.214539 164.185791,536.470093 
	C164.033066,523.815002 164.141464,511.156830 164.136597,497.500000 
M446.770386,397.317352 
	C457.618286,383.880951 468.466187,370.444580 480.073273,356.067871 
	C472.484161,356.067871 466.331665,355.758423 460.237305,356.218903 
	C457.769226,356.405396 454.692322,357.650391 453.151428,359.476227 
	C444.707336,369.481781 436.353210,379.596588 428.617462,390.149811 
	C425.597595,394.269562 422.625793,395.120483 417.859711,393.893402 
	C417.859711,381.337067 417.859711,368.915070 417.859711,356.406403 
	C411.045654,356.406403 404.655640,356.406403 398.238983,356.406403 
	C398.238983,388.954895 398.238983,421.171875 398.238983,453.436127 
	C404.968140,453.436127 411.370697,453.436127 418.126282,453.436127 
	C418.126282,439.501709 418.126282,425.886475 418.126282,412.127380 
	C422.574188,411.434753 425.636230,411.751312 428.490784,415.942108 
	C436.630371,427.892029 445.457062,439.374695 454.057312,451.008759 
	C454.812103,452.029816 455.868073,453.563934 456.817902,453.589203 
	C464.674011,453.798248 472.538086,453.707489 480.997864,453.707489 
	C480.110931,452.112244 479.795959,451.334900 479.304413,450.692719 
	C468.184387,436.166168 457.227600,421.508026 445.789429,407.235870 
	C442.671173,403.344971 442.488159,400.798004 446.770386,397.317352 
M293.338593,427.984436 
	C303.683868,448.465332 321.228333,455.700775 343.045441,454.719086 
	C361.383362,453.893921 377.964539,441.965240 383.905609,425.279358 
	C379.336884,423.564972 374.663696,422.013184 370.166718,420.056396 
	C366.910522,418.639587 365.429718,419.478577 363.614594,422.541901 
	C355.337616,436.510406 335.730011,440.784943 322.107117,431.848328 
	C310.422546,424.183197 307.448822,412.838379 308.928162,399.788483 
	C310.507233,385.858612 318.575409,376.900269 331.142761,373.871643 
	C343.987885,370.776093 358.725891,376.653625 364.362854,388.038544 
	C364.863403,389.049438 366.757751,390.336334 367.550171,390.081482 
	C373.141449,388.283386 378.613770,386.115295 384.334167,383.987122 
	C378.170807,369.911652 368.271667,361.192169 354.182404,356.920013 
	C332.681335,350.400421 308.275970,357.746521 296.935150,375.313629 
	C286.352661,391.706177 286.201050,409.353516 293.338593,427.984436 
M90.653709,362.795898 
	C78.329567,354.402679 64.813889,352.875641 50.670094,356.385895 
	C33.918221,360.543457 24.894403,376.145996 30.223158,391.249023 
	C33.348850,400.107971 40.808632,404.134399 48.851215,407.204285 
	C56.600819,410.162323 64.604324,412.461395 72.325417,415.486115 
	C79.305099,418.220428 82.184296,423.274780 80.998077,429.321350 
	C79.938148,434.724152 74.868858,438.204681 67.716972,438.440063 
	C56.028595,438.824738 49.963902,434.406525 45.605453,422.035156 
	C38.951553,423.569672 32.250797,425.114960 25.546692,426.661041 
	C27.646683,435.490692 30.340258,440.463531 35.227230,444.445007 
	C50.421665,456.824249 67.514832,457.606293 84.948730,451.146790 
	C99.331146,445.817932 105.649651,429.831024 100.085258,415.793823 
	C96.695160,407.241669 89.404770,402.979645 81.351410,399.944946 
	C72.853035,396.742523 64.162651,394.052399 55.636497,390.919800 
	C51.389793,389.359497 48.663639,386.341553 49.163658,381.431427 
	C49.679020,376.370575 52.724083,373.364685 57.445122,371.943024 
	C69.196747,368.404266 77.818367,372.788879 82.615837,384.825134 
	C88.764008,383.261414 94.928230,381.693634 101.106461,380.122253 
	C99.797493,372.820496 96.248619,367.597565 90.653709,362.795898 
M477.312561,473.885040 
	C459.563263,473.885040 441.813965,473.885040 424.169983,473.885040 
	C424.169983,507.423981 424.169983,540.199646 424.169983,573.086060 
	C443.470856,573.086060 462.506012,573.086060 481.525146,573.086060 
	C481.525146,567.195435 481.525146,561.746399 481.525146,555.629883 
	C469.078430,555.629883 456.864563,555.629883 444.555664,555.629883 
	C444.555664,547.693054 444.555664,540.430237 444.555664,532.407227 
	C455.501709,532.407227 466.201233,532.407227 477.199036,532.407227 
	C477.199036,530.496643 477.191650,529.348694 477.200195,528.200806 
	C477.300476,514.722961 477.301056,514.723633 463.776794,514.727234 
	C457.355927,514.728943 450.935028,514.727539 444.496643,514.727539 
	C444.496643,506.780853 444.496643,499.668365 444.496643,492.018860 
	C456.925171,492.018860 469.151611,492.018860 481.752411,492.018860 
	C481.752411,486.524445 481.937836,481.546936 481.594604,476.606079 
	C481.526672,475.627563 479.428070,474.790131 477.312561,473.885040 
M387.366119,500.508209 
	C387.366119,497.762146 387.366119,495.016113 387.366119,491.860474 
	C395.626831,491.860474 403.208679,491.860474 410.748566,491.860474 
	C410.748566,485.668274 410.748566,479.925873 410.748566,474.125946 
	C388.217194,474.125946 365.974182,474.125946 343.468597,474.125946 
	C343.468597,480.101990 343.468597,485.833771 343.468597,492.060333 
	C351.424316,492.060333 359.169891,492.060333 367.527222,492.060333 
	C367.527222,519.406494 367.527222,546.265076 367.527222,573.177490 
	C374.390930,573.177490 380.625641,573.177490 387.366211,573.177490 
	C387.366211,549.056519 387.366211,525.283081 387.366119,500.508209 
M150.707870,425.500061 
	C150.707870,408.239471 150.707870,390.978882 150.707870,373.190125 
	C158.885376,373.190125 166.292618,373.190125 173.555817,373.190125 
	C173.555817,367.240234 173.555817,361.838196 173.555817,356.315979 
	C151.555115,356.315979 129.964828,356.315979 108.230515,356.315979 
	C108.230515,362.090363 108.230515,367.610962 108.230515,373.635315 
	C116.008339,373.635315 123.410477,373.635315 131.286530,373.635315 
	C131.286530,400.545990 131.286530,426.949219 131.286530,453.356018 
	C137.993530,453.356018 144.197067,453.356018 150.707321,453.356018 
	C150.707321,444.130371 150.707321,435.315216 150.707870,425.500061 
M267.272247,640.078247 
	C267.272247,632.624390 267.272247,625.170532 267.272247,617.464783 
	C265.174774,617.464783 263.586578,617.464783 261.408752,617.464783 
	C261.408752,623.367371 261.408752,629.061462 261.408752,634.755615 
	C257.294983,630.429932 253.988708,625.939087 251.347000,621.086365 
	C249.164536,617.077332 246.396927,616.401550 242.514847,617.684814 
	C242.514847,626.851318 242.514847,635.741577 242.514847,644.941956 
	C244.309906,644.863037 245.736145,644.800354 247.867859,644.706604 
	C247.867859,638.594177 247.867859,632.780762 247.867859,626.967407 
	C252.429153,632.152100 255.633072,637.738159 259.447845,642.870056 
	C260.479034,644.257324 263.339600,644.565247 265.406586,644.709778 
	C265.939789,644.747070 266.647614,642.287781 267.272247,640.078247 
M411.947357,623.639160 
	C411.947357,630.591492 411.947357,637.543884 411.947357,644.925293 
	C413.991119,644.815063 415.504028,644.733459 417.536987,644.623840 
	C417.536987,638.080994 417.536987,632.089539 417.536987,624.733154 
	C421.256409,630.775940 424.424103,635.444885 427.078033,640.389648 
	C429.095306,644.148193 431.552368,645.988464 436.031799,644.451355 
	C436.031799,635.512573 436.031799,626.503418 436.031799,617.179626 
	C434.200714,617.322327 432.796478,617.431763 430.898315,617.579712 
	C430.898315,623.761719 430.898315,629.621338 430.898315,635.481018 
	C427.019836,630.981750 423.896332,626.351929 421.182220,621.493408 
	C419.102264,617.770142 416.503174,616.186646 411.947754,617.812439 
	C411.947754,619.419556 411.947754,621.052612 411.947357,623.639160 
M340.504761,645.735840 
	C341.648895,645.525330 342.801544,645.352539 343.935791,645.098022 
	C350.438599,643.638733 354.633148,637.944153 354.535248,630.737915 
	C354.440826,623.787231 350.167725,618.406189 343.693115,617.084473 
	C336.491272,615.614197 329.756958,618.857422 327.149475,625.051758 
	C323.046295,634.799255 328.149384,643.181335 340.504761,645.735840 
M87.902588,619.620911 
	C82.770958,618.469849 77.639336,617.318787 72.057800,616.066833 
	C72.057800,626.615601 72.057800,635.640320 72.057800,644.945496 
	C75.712677,644.945496 79.029488,644.787109 82.324898,644.985046 
	C86.554924,645.239136 90.020226,644.071289 91.577774,639.928406 
	C93.130074,635.799438 91.337753,632.580322 87.552185,630.223816 
	C90.431160,626.964050 91.017853,623.672852 87.902588,619.620911 
M147.272736,639.271851 
	C147.272736,641.041504 147.272736,642.811096 147.272736,644.645142 
	C149.535690,644.645142 151.122940,644.645142 152.904999,644.645142 
	C153.128769,640.570496 153.335846,636.799927 153.560715,632.705322 
	C159.717438,635.815796 158.153854,646.669556 168.487717,644.539001 
	C165.853546,640.431274 163.493210,636.750549 162.264603,634.834656 
	C164.039520,630.183228 166.369644,626.942749 166.061417,623.976379 
	C165.815506,621.609680 162.686325,618.330383 160.244537,617.679810 
	C156.290466,616.626282 151.850601,617.396179 147.270447,617.396179 
	C147.270447,624.737244 147.270447,631.532471 147.272736,639.271851 
M212.706818,625.145569 
	C210.388809,631.566528 208.070816,637.987427 205.752823,644.408386 
	C206.207764,644.841248 206.662720,645.274048 207.117661,645.706909 
	C208.763565,644.631592 211.315094,643.890869 211.862198,642.409729 
	C212.920380,639.545044 214.637115,638.749634 217.128464,639.268921 
	C220.173187,639.903442 224.378616,636.981567 226.063705,642.045166 
	C227.073792,645.080505 229.134613,645.611450 232.558212,644.154724 
	C229.404266,635.650391 226.314804,627.163940 223.038162,618.750366 
	C222.743332,617.993347 221.293106,617.468323 220.287872,617.241699 
	C214.257355,615.882324 214.530640,621.117981 212.706818,625.145569 
M316.848602,618.191467 
	C313.699829,616.183655 311.266724,616.833191 309.069397,619.871033 
	C306.846893,622.943604 304.279938,625.767151 301.863861,628.699829 
	C301.397400,628.483154 300.930908,628.266479 300.464417,628.049805 
	C300.268250,624.525635 300.072083,621.001526 299.861572,617.219238 
	C298.036652,617.313110 296.632141,617.385315 295.142670,617.461914 
	C295.142670,626.723877 295.142670,635.635986 295.142670,644.655151 
	C296.849213,644.655151 298.250671,644.655151 300.370697,644.655151 
	C300.370697,640.731384 300.370697,637.049194 300.370697,633.367065 
	C300.890625,633.149292 301.410553,632.931519 301.930511,632.713745 
	C304.053131,635.466431 306.458740,638.050354 308.226837,641.014526 
	C310.438812,644.722900 313.211487,645.817322 317.750336,644.266235 
	C315.674225,641.488037 314.078278,638.731018 311.894928,636.566528 
	C307.955444,632.661133 306.916687,629.199585 311.698914,625.130798 
	C313.676971,623.447876 315.005951,621.002075 316.848602,618.191467 
M367.406250,634.826904 
	C365.458771,637.831604 361.671875,640.218384 363.862396,644.700317 
	C370.531219,644.700317 376.965820,644.700317 383.355286,644.700317 
	C384.557159,641.471008 383.727478,640.065857 380.397858,640.217285 
	C377.323303,640.356995 374.237396,640.246948 370.502502,640.246948 
	C374.325836,631.840393 382.645569,626.744812 383.551849,617.149231 
	C377.187561,617.149231 371.852478,617.006958 366.536438,617.262024 
	C365.388977,617.317017 364.310211,618.803650 363.199799,619.630920 
	C364.349152,620.440063 365.432465,621.800537 366.661133,621.947693 
	C369.545135,622.293152 372.498688,622.058289 376.394379,622.058289 
	C373.118042,626.757202 370.497406,630.515686 367.406250,634.826904 
M180.743347,625.901917 
	C185.872482,631.260681 184.138794,638.315125 184.770752,644.726501 
	C186.010284,644.836060 186.664001,644.962341 187.310806,644.933472 
	C188.087601,644.898865 188.858505,644.732178 190.473984,644.503540 
	C187.160599,633.590332 193.810623,625.848816 198.863571,617.658936 
	C190.727188,614.951965 191.207367,623.128052 187.389359,625.754517 
	C183.205307,623.853455 183.976105,614.797241 175.795029,617.846619 
	C177.424438,620.499695 178.887405,622.881836 180.743347,625.901917 
M108.383179,634.824097 
	C108.383179,638.090515 108.383179,641.356934 108.383179,644.970459 
	C110.632385,644.867493 112.198967,644.795776 114.643501,644.683899 
	C111.550339,633.951172 116.954674,625.949768 122.725906,617.907166 
	C114.333282,614.884766 115.089912,623.747986 111.033203,625.829346 
	C107.265221,623.265076 107.787575,615.114441 99.743958,617.725159 
	C100.927887,619.787903 102.038574,621.594971 103.024162,623.467896 
	C104.849030,626.935608 106.600685,630.441895 108.383179,634.824097 
M394.042328,618.014343 
	C394.042328,626.904053 394.042328,635.793701 394.042328,645.021179 
	C396.060547,644.877686 397.614807,644.767151 399.296631,644.647583 
	C399.296631,635.339417 399.296631,626.468079 399.296631,617.339966 
	C397.540924,617.339966 396.085968,617.339966 394.042328,618.014343 
z"></path>
<path fill="#2972FC" opacity="1.000000" stroke="none" d="
M310.000000,29.198219 
	C351.158844,29.198231 391.817719,29.196390 432.476562,29.199074 
	C447.015503,29.200033 453.301178,35.414181 453.301544,49.775055 
	C453.303650,133.592300 453.305450,217.409531 453.306091,301.226776 
	C453.306213,314.888458 447.086823,321.194550 433.528137,321.195404 
	C314.051086,321.202881 194.574020,321.202942 75.096962,321.194489 
	C61.559940,321.193542 55.312916,314.908569 55.310802,301.263794 
	C55.297779,217.279922 55.298359,133.296051 55.307106,49.312183 
	C55.308540,35.543785 61.716328,29.199013 75.544937,29.198658 
	C153.529953,29.196659 231.514984,29.197971 310.000000,29.198219 
M362.445251,155.996140 
	C371.179596,160.947083 373.244690,160.573181 379.585175,152.870300 
	C382.121613,149.788895 384.595367,146.654526 387.182556,143.616562 
	C393.263641,136.475906 399.395874,129.378799 405.507416,122.264091 
	C406.599091,128.997543 406.392700,135.423111 406.665558,141.828262 
	C406.877136,146.795715 409.610962,149.727448 413.512329,149.421677 
	C417.715973,149.092209 420.216522,146.647324 420.239716,142.249298 
	C420.310852,128.763840 420.491150,115.275040 420.258240,101.793953 
	C420.176025,97.036423 416.820251,94.483727 412.238831,95.090736 
	C398.241943,96.945229 384.253967,98.879700 370.291840,100.977974 
	C365.325653,101.724312 362.733856,105.205284 363.575653,109.157303 
	C364.405243,113.051941 368.180511,115.109512 372.905792,114.470268 
	C380.087067,113.498787 387.287445,112.668678 394.479675,111.778534 
	C394.702911,112.115639 394.926147,112.452751 395.149384,112.789864 
	C386.379639,123.040718 377.609894,133.291580 368.880981,143.494720 
	C361.353210,139.245193 354.257355,135.272675 347.193268,131.244446 
	C334.613434,124.070923 334.499451,123.940849 324.540924,134.417969 
	C297.131927,163.254318 269.836761,192.198822 242.492584,221.096802 
	C236.016953,227.940384 229.525742,234.769196 222.862015,241.794266 
	C203.985046,224.632706 185.613617,208.003815 167.336914,191.271439 
	C161.682816,186.095062 159.679596,185.679092 153.372879,189.598343 
	C140.088837,197.853592 126.813316,206.122742 113.560638,214.428192 
	C106.230202,219.022156 98.883293,223.596542 91.687119,228.394684 
	C88.939926,230.226379 86.652016,233.135696 88.876106,236.385529 
	C90.342407,238.528030 93.111267,240.226883 95.642555,241.017044 
	C97.056511,241.458420 99.301788,239.838242 100.959373,238.805130 
	C118.891991,227.628632 136.817947,216.440292 154.648697,205.102646 
	C157.596191,203.228485 159.519913,203.033401 162.313828,205.627075 
	C179.507675,221.588455 196.939423,237.293137 214.218140,253.163681 
	C222.059219,260.365723 224.626419,260.495148 231.060165,253.675720 
	C265.436005,217.239212 299.851013,180.839584 334.181244,144.360184 
	C336.308258,142.099991 337.985229,141.893250 340.601349,143.472626 
	C347.575897,147.683212 354.706970,151.634521 362.445251,155.996140 
M282.500000,288.897919 
	C323.980530,288.900208 365.461090,288.918243 406.941559,288.871552 
	C409.897461,288.868225 412.936707,288.735718 415.786804,288.043793 
	C419.185242,287.218719 420.923981,284.276001 419.905060,281.153992 
	C419.153748,278.851929 416.863586,276.855682 414.840363,275.251221 
	C413.884613,274.493286 411.947021,274.902893 410.454315,274.902740 
	C306.336334,274.891174 202.218353,274.888580 98.100388,274.916779 
	C96.298172,274.917267 94.020164,274.694122 92.803230,275.646973 
	C90.884262,277.149506 88.432793,279.606049 88.501686,281.578613 
	C88.578972,283.791107 90.903000,286.267365 92.841682,287.944244 
	C94.004707,288.950226 96.299805,288.895752 98.086327,288.896667 
	C159.224213,288.928314 220.362106,288.909485 282.500000,288.897919 
M105.044670,156.181229 
	C106.184853,162.602097 111.923492,161.098022 115.941055,162.242172 
	C116.767792,171.594040 118.215630,173.878494 123.233002,173.985229 
	C127.832199,174.083038 129.216888,171.912766 130.657593,162.348190 
	C150.462158,158.310181 158.858963,150.985245 158.383698,136.605377 
	C158.212570,131.427383 156.207916,125.725372 153.367371,121.347878 
	C148.229340,113.429825 139.573013,111.138306 130.523621,110.813011 
	C130.523621,103.332550 130.523621,96.277153 130.523621,89.266838 
	C138.933075,88.414688 141.888870,86.495842 142.054443,81.972557 
	C142.214096,77.611015 139.799103,75.971039 130.475616,74.254227 
	C129.683884,69.560799 131.684235,62.648609 123.341133,62.802261 
	C115.467880,62.947266 116.896568,69.708534 115.839256,74.403488 
	C98.269127,76.971321 88.261917,86.142334 88.074966,99.635254 
	C87.880005,113.706398 97.224586,122.544136 115.901367,125.738670 
	C115.901367,132.894913 115.901367,140.096710 115.901367,147.239914 
	C105.929863,148.870911 105.654884,149.081390 105.044670,156.181229 
z"></path>
<path fill="#103C37" opacity="1.000000" stroke="none" d="
M75.048157,472.726501 
	C92.869606,472.403015 107.703011,477.618225 118.647408,491.826538 
	C132.003906,509.166351 131.856613,539.397583 117.863274,556.539673 
	C115.558495,559.363098 115.942520,560.798645 118.064262,563.104187 
	C122.312157,567.719971 126.336304,572.541748 130.863434,577.750916 
	C125.472221,579.777893 120.743393,581.740906 115.872871,583.245178 
	C114.779442,583.582947 112.820320,582.676575 111.894852,581.725159 
	C108.204285,577.931091 104.764511,573.893127 101.342209,570.068726 
	C78.526382,578.264526 56.767025,577.721863 39.258430,559.772888 
	C22.842648,542.944275 21.246157,521.961548 30.165373,500.949707 
	C38.232758,481.944550 54.296516,473.550171 75.048157,472.726501 
M92.424187,494.999664 
	C82.610931,489.927551 72.502304,489.787811 62.698128,494.416473 
	C51.763317,499.578888 46.652481,509.045471 45.969109,520.848816 
	C44.587746,544.708008 59.951584,560.618469 83.958191,556.342407 
	C96.907478,554.036011 105.752235,544.597351 107.662155,530.766541 
	C109.650955,516.364624 106.350159,503.213745 92.424187,494.999664 
z"></path>
<path fill="#103C37" opacity="1.000000" stroke="none" d="
M314.836121,480.052979 
	C329.299072,489.039795 335.792511,502.380707 337.128418,518.398010 
	C338.185486,531.072388 336.261322,543.355713 328.608612,553.985474 
	C316.473785,570.841003 299.628906,576.557983 279.472076,574.299133 
	C263.626038,572.523315 250.871094,565.479126 242.804993,551.642883 
	C227.187790,524.853821 235.226425,479.613281 277.637268,473.198364 
	C290.480499,471.255798 303.076202,473.009674 314.836121,480.052979 
M256.138885,520.851746 
	C256.105255,522.181641 255.997879,523.514465 256.049408,524.841064 
	C256.552185,537.784241 261.419098,548.469727 273.848633,553.571106 
	C285.461639,558.337463 297.159241,557.375977 306.946442,548.723022 
	C316.733948,540.069824 318.293182,528.520386 316.397186,516.306702 
	C315.095306,507.920471 311.158722,500.693207 303.874390,496.231140 
	C284.154724,484.151703 257.775970,494.492126 256.138885,520.851746 
z"></path>
<path fill="#113D38" opacity="1.000000" stroke="none" d="
M180.750153,414.116699 
	C175.216431,380.169067 197.945908,351.007812 235.799713,355.167114 
	C259.181152,357.736206 272.914368,370.100372 277.909637,391.965698 
	C282.101959,410.316223 279.070129,427.715546 265.104034,441.176544 
	C250.416183,455.333130 232.344330,457.977631 213.143173,452.266724 
	C194.426193,446.699829 184.099716,433.536774 180.750153,414.116699 
M203.553986,420.822815 
	C209.762329,435.324646 228.810059,439.865082 241.942764,434.013489 
	C255.463379,427.989014 259.909332,416.618530 259.403442,402.760834 
	C258.974091,390.999512 254.337326,381.315704 243.284607,376.155975 
	C231.851532,370.818604 220.570312,372.033386 210.444260,379.651337 
	C199.736389,387.706940 196.638153,406.032104 203.553986,420.822815 
z"></path>
<path fill="#113D38" opacity="1.000000" stroke="none" d="
M164.136612,498.000000 
	C164.141464,511.156830 164.033066,523.815002 164.185791,536.470093 
	C164.315445,547.214539 168.371857,553.454956 176.417160,555.987488 
	C189.614960,560.141785 200.867569,552.085876 200.937515,538.247864 
	C201.036850,518.596924 200.962921,498.945099 200.963043,479.293640 
	C200.963043,477.663269 200.963058,476.032867 200.963058,474.143921 
	C207.912949,474.143921 214.499771,474.143921 221.308075,474.143921 
	C221.457870,474.920807 221.744598,475.704376 221.739960,476.486206 
	C221.609512,498.457886 221.677704,520.434143 221.219299,542.399292 
	C220.878845,558.712891 210.138550,570.800415 193.985718,573.899048 
	C184.871567,575.647522 175.766800,575.532288 166.891632,572.628601 
	C154.042984,568.424805 145.994141,559.686951 144.383759,546.166748 
	C143.345520,537.450134 143.424911,528.579346 143.343216,519.774475 
	C143.205719,504.954956 143.336304,490.132904 143.373306,475.311920 
	C143.374039,475.015472 143.609558,474.719635 143.849960,474.154541 
	C150.320877,474.154541 156.898651,474.154541 164.136597,474.154541 
	C164.136597,481.992584 164.136597,489.746277 164.136612,498.000000 
z"></path>
<path fill="#103C37" opacity="1.000000" stroke="none" d="
M446.524414,397.581482 
	C442.488159,400.798004 442.671173,403.344971 445.789429,407.235870 
	C457.227600,421.508026 468.184387,436.166168 479.304413,450.692719 
	C479.795959,451.334900 480.110931,452.112244 480.997864,453.707489 
	C472.538086,453.707489 464.674011,453.798248 456.817902,453.589203 
	C455.868073,453.563934 454.812103,452.029816 454.057312,451.008759 
	C445.457062,439.374695 436.630371,427.892029 428.490784,415.942108 
	C425.636230,411.751312 422.574188,411.434753 418.126282,412.127380 
	C418.126282,425.886475 418.126282,439.501709 418.126282,453.436127 
	C411.370697,453.436127 404.968140,453.436127 398.238983,453.436127 
	C398.238983,421.171875 398.238983,388.954895 398.238983,356.406403 
	C404.655640,356.406403 411.045654,356.406403 417.859711,356.406403 
	C417.859711,368.915070 417.859711,381.337067 417.859711,393.893402 
	C422.625793,395.120483 425.597595,394.269562 428.617462,390.149811 
	C436.353210,379.596588 444.707336,369.481781 453.151428,359.476227 
	C454.692322,357.650391 457.769226,356.405396 460.237305,356.218903 
	C466.331665,355.758423 472.484161,356.067871 480.073273,356.067871 
	C468.466187,370.444580 457.618286,383.880951 446.524414,397.581482 
z"></path>
<path fill="#113D38" opacity="1.000000" stroke="none" d="
M293.168152,427.641663 
	C286.201050,409.353516 286.352661,391.706177 296.935150,375.313629 
	C308.275970,357.746521 332.681335,350.400421 354.182404,356.920013 
	C368.271667,361.192169 378.170807,369.911652 384.334167,383.987122 
	C378.613770,386.115295 373.141449,388.283386 367.550171,390.081482 
	C366.757751,390.336334 364.863403,389.049438 364.362854,388.038544 
	C358.725891,376.653625 343.987885,370.776093 331.142761,373.871643 
	C318.575409,376.900269 310.507233,385.858612 308.928162,399.788483 
	C307.448822,412.838379 310.422546,424.183197 322.107117,431.848328 
	C335.730011,440.784943 355.337616,436.510406 363.614594,422.541901 
	C365.429718,419.478577 366.910522,418.639587 370.166718,420.056396 
	C374.663696,422.013184 379.336884,423.564972 383.905609,425.279358 
	C377.964539,441.965240 361.383362,453.893921 343.045441,454.719086 
	C321.228333,455.700775 303.683868,448.465332 293.168152,427.641663 
z"></path>
<path fill="#123E39" opacity="1.000000" stroke="none" d="
M90.918587,363.040619 
	C96.248619,367.597565 99.797493,372.820496 101.106461,380.122253 
	C94.928230,381.693634 88.764008,383.261414 82.615837,384.825134 
	C77.818367,372.788879 69.196747,368.404266 57.445122,371.943024 
	C52.724083,373.364685 49.679020,376.370575 49.163658,381.431427 
	C48.663639,386.341553 51.389793,389.359497 55.636497,390.919800 
	C64.162651,394.052399 72.853035,396.742523 81.351410,399.944946 
	C89.404770,402.979645 96.695160,407.241669 100.085258,415.793823 
	C105.649651,429.831024 99.331146,445.817932 84.948730,451.146790 
	C67.514832,457.606293 50.421665,456.824249 35.227230,444.445007 
	C30.340258,440.463531 27.646683,435.490692 25.546692,426.661041 
	C32.250797,425.114960 38.951553,423.569672 45.605453,422.035156 
	C49.963902,434.406525 56.028595,438.824738 67.716972,438.440063 
	C74.868858,438.204681 79.938148,434.724152 80.998077,429.321350 
	C82.184296,423.274780 79.305099,418.220428 72.325417,415.486115 
	C64.604324,412.461395 56.600819,410.162323 48.851215,407.204285 
	C40.808632,404.134399 33.348850,400.107971 30.223158,391.249023 
	C24.894403,376.145996 33.918221,360.543457 50.670094,356.385895 
	C64.813889,352.875641 78.329567,354.402679 90.918587,363.040619 
z"></path>
<path fill="#0F3B36" opacity="1.000000" stroke="none" d="
M477.789246,473.886353 
	C479.428070,474.790131 481.526672,475.627563 481.594604,476.606079 
	C481.937836,481.546936 481.752411,486.524445 481.752411,492.018860 
	C469.151611,492.018860 456.925171,492.018860 444.496643,492.018860 
	C444.496643,499.668365 444.496643,506.780853 444.496643,514.727539 
	C450.935028,514.727539 457.355927,514.728943 463.776794,514.727234 
	C477.301056,514.723633 477.300476,514.722961 477.200195,528.200806 
	C477.191650,529.348694 477.199036,530.496643 477.199036,532.407227 
	C466.201233,532.407227 455.501709,532.407227 444.555664,532.407227 
	C444.555664,540.430237 444.555664,547.693054 444.555664,555.629883 
	C456.864563,555.629883 469.078430,555.629883 481.525146,555.629883 
	C481.525146,561.746399 481.525146,567.195435 481.525146,573.086060 
	C462.506012,573.086060 443.470856,573.086060 424.169983,573.086060 
	C424.169983,540.199646 424.169983,507.423981 424.169983,473.885040 
	C441.813965,473.885040 459.563263,473.885040 477.789246,473.886353 
z"></path>
<path fill="#103D38" opacity="1.000000" stroke="none" d="
M387.366150,501.008911 
	C387.366211,525.283081 387.366211,549.056519 387.366211,573.177490 
	C380.625641,573.177490 374.390930,573.177490 367.527222,573.177490 
	C367.527222,546.265076 367.527222,519.406494 367.527222,492.060333 
	C359.169891,492.060333 351.424316,492.060333 343.468597,492.060333 
	C343.468597,485.833771 343.468597,480.101990 343.468597,474.125946 
	C365.974182,474.125946 388.217194,474.125946 410.748566,474.125946 
	C410.748566,479.925873 410.748566,485.668274 410.748566,491.860474 
	C403.208679,491.860474 395.626831,491.860474 387.366119,491.860474 
	C387.366119,495.016113 387.366119,497.762146 387.366150,501.008911 
z"></path>
<path fill="#143F3A" opacity="1.000000" stroke="none" d="
M150.707596,426.000061 
	C150.707321,435.315216 150.707321,444.130371 150.707321,453.356018 
	C144.197067,453.356018 137.993530,453.356018 131.286530,453.356018 
	C131.286530,426.949219 131.286530,400.545990 131.286530,373.635315 
	C123.410477,373.635315 116.008339,373.635315 108.230515,373.635315 
	C108.230515,367.610962 108.230515,362.090363 108.230515,356.315979 
	C129.964828,356.315979 151.555115,356.315979 173.555817,356.315979 
	C173.555817,361.838196 173.555817,367.240234 173.555817,373.190125 
	C166.292618,373.190125 158.885376,373.190125 150.707870,373.190125 
	C150.707870,390.978882 150.707870,408.239471 150.707596,426.000061 
z"></path>
<path fill="#234B47" opacity="1.000000" stroke="none" d="
M267.273743,640.526794 
	C266.647614,642.287781 265.939789,644.747070 265.406586,644.709778 
	C263.339600,644.565247 260.479034,644.257324 259.447845,642.870056 
	C255.633072,637.738159 252.429153,632.152100 247.867859,626.967407 
	C247.867859,632.780762 247.867859,638.594177 247.867859,644.706604 
	C245.736145,644.800354 244.309906,644.863037 242.514847,644.941956 
	C242.514847,635.741577 242.514847,626.851318 242.514847,617.684814 
	C246.396927,616.401550 249.164536,617.077332 251.347000,621.086365 
	C253.988708,625.939087 257.294983,630.429932 261.408752,634.755615 
	C261.408752,629.061462 261.408752,623.367371 261.408752,617.464783 
	C263.586578,617.464783 265.174774,617.464783 267.272247,617.464783 
	C267.272247,625.170532 267.272247,632.624390 267.273743,640.526794 
z"></path>
<path fill="#18423D" opacity="1.000000" stroke="none" d="
M411.947571,623.162415 
	C411.947754,621.052612 411.947754,619.419556 411.947754,617.812439 
	C416.503174,616.186646 419.102264,617.770142 421.182220,621.493408 
	C423.896332,626.351929 427.019836,630.981750 430.898315,635.481018 
	C430.898315,629.621338 430.898315,623.761719 430.898315,617.579712 
	C432.796478,617.431763 434.200714,617.322327 436.031799,617.179626 
	C436.031799,626.503418 436.031799,635.512573 436.031799,644.451355 
	C431.552368,645.988464 429.095306,644.148193 427.078033,640.389648 
	C424.424103,635.444885 421.256409,630.775940 417.536987,624.733154 
	C417.536987,632.089539 417.536987,638.080994 417.536987,644.623840 
	C415.504028,644.733459 413.991119,644.815063 411.947357,644.925293 
	C411.947357,637.543884 411.947357,630.591492 411.947571,623.162415 
z"></path>
<path fill="#204844" opacity="1.000000" stroke="none" d="
M340.102020,645.700684 
	C328.149384,643.181335 323.046295,634.799255 327.149475,625.051758 
	C329.756958,618.857422 336.491272,615.614197 343.693115,617.084473 
	C350.167725,618.406189 354.440826,623.787231 354.535248,630.737915 
	C354.633148,637.944153 350.438599,643.638733 343.935791,645.098022 
	C342.801544,645.352539 341.648895,645.525330 340.102020,645.700684 
M345.099213,638.889709 
	C350.711182,633.262146 349.885071,624.767395 343.437286,622.639832 
	C339.694031,621.404602 335.945892,621.871704 333.574677,625.189392 
	C331.003479,628.786926 330.695221,632.982117 333.375580,636.766846 
	C336.193695,640.746155 340.094086,641.167786 345.099213,638.889709 
z"></path>
<path fill="#204944" opacity="1.000000" stroke="none" d="
M88.165329,619.916382 
	C91.017853,623.672852 90.431160,626.964050 87.552185,630.223816 
	C91.337753,632.580322 93.130074,635.799438 91.577774,639.928406 
	C90.020226,644.071289 86.554924,645.239136 82.324898,644.985046 
	C79.029488,644.787109 75.712677,644.945496 72.057800,644.945496 
	C72.057800,635.640320 72.057800,626.615601 72.057800,616.066833 
	C77.639336,617.318787 82.770958,618.469849 88.165329,619.916382 
M78.744751,640.574097 
	C82.114082,640.471008 86.921196,641.304626 86.408180,636.284485 
	C85.950905,631.809875 81.371727,632.677612 77.933762,633.045593 
	C77.800171,633.059875 77.684135,633.238159 76.834572,633.935059 
	C77.154823,635.729004 77.561646,638.007812 78.744751,640.574097 
M84.734917,626.363403 
	C85.043213,620.479187 81.040359,621.813416 77.313324,621.874756 
	C77.313324,624.024841 77.313324,625.923096 77.313324,628.817017 
	C79.850937,628.202576 82.088760,627.660706 84.734917,626.363403 
z"></path>
<path fill="#274F4A" opacity="1.000000" stroke="none" d="
M147.271591,638.799805 
	C147.270447,631.532471 147.270447,624.737244 147.270447,617.396179 
	C151.850601,617.396179 156.290466,616.626282 160.244537,617.679810 
	C162.686325,618.330383 165.815506,621.609680 166.061417,623.976379 
	C166.369644,626.942749 164.039520,630.183228 162.264603,634.834656 
	C163.493210,636.750549 165.853546,640.431274 168.487717,644.539001 
	C158.153854,646.669556 159.717438,635.815796 153.560715,632.705322 
	C153.335846,636.799927 153.128769,640.570496 152.904999,644.645142 
	C151.122940,644.645142 149.535690,644.645142 147.272736,644.645142 
	C147.272736,642.811096 147.272736,641.041504 147.271591,638.799805 
M158.087372,621.884460 
	C156.408920,622.564697 154.153564,622.827271 153.253357,624.070801 
	C152.645630,624.910278 153.948486,627.132874 154.396698,628.736755 
	C156.475220,628.133362 158.553726,627.529907 160.632248,626.926514 
	C160.050430,625.345947 159.468613,623.765320 158.087372,621.884460 
z"></path>
<path fill="#1B4540" opacity="1.000000" stroke="none" d="
M212.822388,624.770630 
	C214.530640,621.117981 214.257355,615.882324 220.287872,617.241699 
	C221.293106,617.468323 222.743332,617.993347 223.038162,618.750366 
	C226.314804,627.163940 229.404266,635.650391 232.558212,644.154724 
	C229.134613,645.611450 227.073792,645.080505 226.063705,642.045166 
	C224.378616,636.981567 220.173187,639.903442 217.128464,639.268921 
	C214.637115,638.749634 212.920380,639.545044 211.862198,642.409729 
	C211.315094,643.890869 208.763565,644.631592 207.117661,645.706909 
	C206.662720,645.274048 206.207764,644.841248 205.752823,644.408386 
	C208.070816,637.987427 210.388809,631.566528 212.822388,624.770630 
M221.092911,634.656860 
	C221.631775,633.820496 222.778183,632.822083 222.605713,632.175476 
	C221.801941,629.161804 220.633667,626.245483 219.168411,622.079224 
	C217.448059,626.875000 216.169586,630.438904 214.654221,634.663269 
	C217.063141,634.663269 218.669510,634.663269 221.092911,634.656860 
z"></path>
<path fill="#1C4540" opacity="1.000000" stroke="none" d="
M316.739380,618.547363 
	C315.005951,621.002075 313.676971,623.447876 311.698914,625.130798 
	C306.916687,629.199585 307.955444,632.661133 311.894928,636.566528 
	C314.078278,638.731018 315.674225,641.488037 317.750336,644.266235 
	C313.211487,645.817322 310.438812,644.722900 308.226837,641.014526 
	C306.458740,638.050354 304.053131,635.466431 301.930511,632.713745 
	C301.410553,632.931519 300.890625,633.149292 300.370697,633.367065 
	C300.370697,637.049194 300.370697,640.731384 300.370697,644.655151 
	C298.250671,644.655151 296.849213,644.655151 295.142670,644.655151 
	C295.142670,635.635986 295.142670,626.723877 295.142670,617.461914 
	C296.632141,617.385315 298.036652,617.313110 299.861572,617.219238 
	C300.072083,621.001526 300.268250,624.525635 300.464417,628.049805 
	C300.930908,628.266479 301.397400,628.483154 301.863861,628.699829 
	C304.279938,625.767151 306.846893,622.943604 309.069397,619.871033 
	C311.266724,616.833191 313.699829,616.183655 316.739380,618.547363 
z"></path>
<path fill="#28504B" opacity="1.000000" stroke="none" d="
M367.641541,634.550537 
	C370.497406,630.515686 373.118042,626.757202 376.394379,622.058289 
	C372.498688,622.058289 369.545135,622.293152 366.661133,621.947693 
	C365.432465,621.800537 364.349152,620.440063 363.199768,619.630920 
	C364.310211,618.803650 365.388977,617.317017 366.536438,617.262024 
	C371.852478,617.006958 377.187561,617.149231 383.551849,617.149231 
	C382.645569,626.744812 374.325836,631.840393 370.502502,640.246948 
	C374.237396,640.246948 377.323303,640.356995 380.397858,640.217285 
	C383.727478,640.065857 384.557159,641.471008 383.355286,644.700317 
	C376.965820,644.700317 370.531219,644.700317 363.862396,644.700317 
	C361.671875,640.218384 365.458771,637.831604 367.641541,634.550537 
z"></path>
<path fill="#214944" opacity="1.000000" stroke="none" d="
M180.546875,625.582886 
	C178.887405,622.881836 177.424438,620.499695 175.795029,617.846619 
	C183.976105,614.797241 183.205307,623.853455 187.389359,625.754517 
	C191.207367,623.128052 190.727188,614.951965 198.863571,617.658936 
	C193.810623,625.848816 187.160599,633.590332 190.473984,644.503540 
	C188.858505,644.732178 188.087601,644.898865 187.310806,644.933472 
	C186.664001,644.962341 186.010284,644.836060 184.770752,644.726501 
	C184.138794,638.315125 185.872482,631.260681 180.546875,625.582886 
z"></path>
<path fill="#234B46" opacity="1.000000" stroke="none" d="
M108.383003,634.378052 
	C106.600685,630.441895 104.849030,626.935608 103.024162,623.467896 
	C102.038574,621.594971 100.927887,619.787903 99.743958,617.725159 
	C107.787575,615.114441 107.265221,623.265076 111.033203,625.829346 
	C115.089912,623.747986 114.333282,614.884766 122.725906,617.907166 
	C116.954674,625.949768 111.550339,633.951172 114.643501,644.683899 
	C112.198967,644.795776 110.632385,644.867493 108.383179,644.970459 
	C108.383179,641.356934 108.383179,638.090515 108.383003,634.378052 
z"></path>
<path fill="#274F4A" opacity="1.000000" stroke="none" d="
M394.336670,617.677124 
	C396.085968,617.339966 397.540924,617.339966 399.296631,617.339966 
	C399.296631,626.468079 399.296631,635.339417 399.296631,644.647583 
	C397.614807,644.767151 396.060547,644.877686 394.042328,645.021179 
	C394.042328,635.793701 394.042328,626.904053 394.336670,617.677124 
z"></path>
<path fill="#FAFBFF" opacity="1.000000" stroke="none" d="
M362.110535,155.842529 
	C354.706970,151.634521 347.575897,147.683212 340.601349,143.472626 
	C337.985229,141.893250 336.308258,142.099991 334.181244,144.360184 
	C299.851013,180.839584 265.436005,217.239212 231.060165,253.675720 
	C224.626419,260.495148 222.059219,260.365723 214.218140,253.163681 
	C196.939423,237.293137 179.507675,221.588455 162.313828,205.627075 
	C159.519913,203.033401 157.596191,203.228485 154.648697,205.102646 
	C136.817947,216.440292 118.891991,227.628632 100.959373,238.805130 
	C99.301788,239.838242 97.056511,241.458420 95.642555,241.017044 
	C93.111267,240.226883 90.342407,238.528030 88.876106,236.385529 
	C86.652016,233.135696 88.939926,230.226379 91.687119,228.394684 
	C98.883293,223.596542 106.230202,219.022156 113.560638,214.428192 
	C126.813316,206.122742 140.088837,197.853592 153.372879,189.598343 
	C159.679596,185.679092 161.682816,186.095062 167.336914,191.271439 
	C185.613617,208.003815 203.985046,224.632706 222.862015,241.794266 
	C229.525742,234.769196 236.016953,227.940384 242.492584,221.096802 
	C269.836761,192.198822 297.131927,163.254318 324.540924,134.417969 
	C334.499451,123.940849 334.613434,124.070923 347.193268,131.244446 
	C354.257355,135.272675 361.353210,139.245193 368.880981,143.494720 
	C377.609894,133.291580 386.379639,123.040718 395.149384,112.789864 
	C394.926147,112.452751 394.702911,112.115639 394.479675,111.778534 
	C387.287445,112.668678 380.087067,113.498787 372.905792,114.470268 
	C368.180511,115.109512 364.405243,113.051941 363.575653,109.157303 
	C362.733856,105.205284 365.325653,101.724312 370.291840,100.977974 
	C384.253967,98.879700 398.241943,96.945229 412.238831,95.090736 
	C416.820251,94.483727 420.176025,97.036423 420.258240,101.793953 
	C420.491150,115.275040 420.310852,128.763840 420.239716,142.249298 
	C420.216522,146.647324 417.715973,149.092209 413.512329,149.421677 
	C409.610962,149.727448 406.877136,146.795715 406.665558,141.828262 
	C406.392700,135.423111 406.599091,128.997543 405.507416,122.264091 
	C399.395874,129.378799 393.263641,136.475906 387.182556,143.616562 
	C384.595367,146.654526 382.121613,149.788895 379.585175,152.870300 
	C373.244690,160.573181 371.179596,160.947083 362.110535,155.842529 
z"></path>
<path fill="#FCFCFF" opacity="1.000000" stroke="none" d="
M282.000000,288.897888 
	C220.362106,288.909485 159.224213,288.928314 98.086327,288.896667 
	C96.299805,288.895752 94.004707,288.950226 92.841682,287.944244 
	C90.903000,286.267365 88.578972,283.791107 88.501686,281.578613 
	C88.432793,279.606049 90.884262,277.149506 92.803230,275.646973 
	C94.020164,274.694122 96.298172,274.917267 98.100388,274.916779 
	C202.218353,274.888580 306.336334,274.891174 410.454315,274.902740 
	C411.947021,274.902893 413.884613,274.493286 414.840363,275.251221 
	C416.863586,276.855682 419.153748,278.851929 419.905060,281.153992 
	C420.923981,284.276001 419.185242,287.218719 415.786804,288.043793 
	C412.936707,288.735718 409.897461,288.868225 406.941559,288.871552 
	C365.461090,288.918243 323.980530,288.900208 282.000000,288.897888 
z"></path>
<path fill="#FAFBFF" opacity="1.000000" stroke="none" d="
M105.025650,155.775879 
	C105.654884,149.081390 105.929863,148.870911 115.901367,147.239914 
	C115.901367,140.096710 115.901367,132.894913 115.901367,125.738670 
	C97.224586,122.544136 87.880005,113.706398 88.074966,99.635254 
	C88.261917,86.142334 98.269127,76.971321 115.839256,74.403488 
	C116.896568,69.708534 115.467880,62.947266 123.341133,62.802261 
	C131.684235,62.648609 129.683884,69.560799 130.475616,74.254227 
	C139.799103,75.971039 142.214096,77.611015 142.054443,81.972557 
	C141.888870,86.495842 138.933075,88.414688 130.523621,89.266838 
	C130.523621,96.277153 130.523621,103.332550 130.523621,110.813011 
	C139.573013,111.138306 148.229340,113.429825 153.367371,121.347878 
	C156.207916,125.725372 158.212570,131.427383 158.383698,136.605377 
	C158.858963,150.985245 150.462158,158.310181 130.657593,162.348190 
	C129.216888,171.912766 127.832199,174.083038 123.233002,173.985229 
	C118.215630,173.878494 116.767792,171.594040 115.941055,162.242172 
	C111.923492,161.098022 106.184853,162.602097 105.025650,155.775879 
M130.170258,145.909378 
	C131.955948,146.443604 133.878159,147.694260 135.503052,147.384628 
	C141.636185,146.215897 145.503052,140.288269 144.418274,134.441544 
	C143.256439,128.179382 137.491409,124.520622 130.147873,125.789978 
	C130.147873,132.139023 130.147873,138.581970 130.170258,145.909378 
M104.305359,93.946114 
	C101.167740,98.279709 101.457169,102.637550 104.621902,106.706276 
	C107.458420,110.353050 111.256439,111.803490 115.929565,110.772560 
	C115.929565,103.349419 115.929565,96.290947 115.929565,89.150787 
	C111.207893,88.522530 107.497040,89.621506 104.305359,93.946114 
z"></path>
<path fill="#FCFCFC" opacity="1.000000" stroke="none" d="
M92.778557,495.113159 
	C106.350159,503.213745 109.650955,516.364624 107.662155,530.766541 
	C105.752235,544.597351 96.907478,554.036011 83.958191,556.342407 
	C59.951584,560.618469 44.587746,544.708008 45.969109,520.848816 
	C46.652481,509.045471 51.763317,499.578888 62.698128,494.416473 
	C72.502304,489.787811 82.610931,489.927551 92.778557,495.113159 
z"></path>
<path fill="#FCFCFC" opacity="1.000000" stroke="none" d="
M256.216248,520.417358 
	C257.775970,494.492126 284.154724,484.151703 303.874390,496.231140 
	C311.158722,500.693207 315.095306,507.920471 316.397186,516.306702 
	C318.293182,528.520386 316.733948,540.069824 306.946442,548.723022 
	C297.159241,557.375977 285.461639,558.337463 273.848633,553.571106 
	C261.419098,548.469727 256.552185,537.784241 256.049408,524.841064 
	C255.997879,523.514465 256.105255,522.181641 256.216248,520.417358 
z"></path>
<path fill="#FDFDFD" opacity="1.000000" stroke="none" d="
M203.364471,420.493713 
	C196.638153,406.032104 199.736389,387.706940 210.444260,379.651337 
	C220.570312,372.033386 231.851532,370.818604 243.284607,376.155975 
	C254.337326,381.315704 258.974091,390.999512 259.403442,402.760834 
	C259.909332,416.618530 255.463379,427.989014 241.942764,434.013489 
	C228.810059,439.865082 209.762329,435.324646 203.364471,420.493713 
z"></path>
<path fill="#F2F4F4" opacity="1.000000" stroke="none" d="
M344.744751,639.088623 
	C340.094086,641.167786 336.193695,640.746155 333.375580,636.766846 
	C330.695221,632.982117 331.003479,628.786926 333.574677,625.189392 
	C335.945892,621.871704 339.694031,621.404602 343.437286,622.639832 
	C349.885071,624.767395 350.711182,633.262146 344.744751,639.088623 
z"></path>
<path fill="#E4E9E8" opacity="1.000000" stroke="none" d="
M78.356606,640.430420 
	C77.561646,638.007812 77.154823,635.729004 76.834572,633.935059 
	C77.684135,633.238159 77.800171,633.059875 77.933762,633.045593 
	C81.371727,632.677612 85.950905,631.809875 86.408180,636.284485 
	C86.921196,641.304626 82.114082,640.471008 78.356606,640.430420 
z"></path>
<path fill="#EBEEEE" opacity="1.000000" stroke="none" d="
M84.530746,626.741089 
	C82.088760,627.660706 79.850937,628.202576 77.313324,628.817017 
	C77.313324,625.923096 77.313324,624.024841 77.313324,621.874756 
	C81.040359,621.813416 85.043213,620.479187 84.530746,626.741089 
z"></path>
<path fill="#E4E9E8" opacity="1.000000" stroke="none" d="
M158.487091,622.034607 
	C159.468613,623.765320 160.050430,625.345947 160.632248,626.926514 
	C158.553726,627.529907 156.475220,628.133362 154.396698,628.736755 
	C153.948486,627.132874 152.645630,624.910278 153.253357,624.070801 
	C154.153564,622.827271 156.408920,622.564697 158.487091,622.034607 
z"></path>
<path fill="#E3E7E7" opacity="1.000000" stroke="none" d="
M220.684387,634.660034 
	C218.669510,634.663269 217.063141,634.663269 214.654221,634.663269 
	C216.169586,630.438904 217.448059,626.875000 219.168411,622.079224 
	C220.633667,626.245483 221.801941,629.161804 222.605713,632.175476 
	C222.778183,632.822083 221.631775,633.820496 220.684387,634.660034 
z"></path>
<path fill="#3378FC" opacity="1.000000" stroke="none" d="
M130.159058,145.467163 
	C130.147873,138.581970 130.147873,132.139023 130.147873,125.789978 
	C137.491409,124.520622 143.256439,128.179382 144.418274,134.441544 
	C145.503052,140.288269 141.636185,146.215897 135.503052,147.384628 
	C133.878159,147.694260 131.955948,146.443604 130.159058,145.467163 
z"></path>
<path fill="#2B73FB" opacity="1.000000" stroke="none" d="
M104.541656,93.642929 
	C107.497040,89.621506 111.207893,88.522530 115.929565,89.150787 
	C115.929565,96.290947 115.929565,103.349419 115.929565,110.772560 
	C111.256439,111.803490 107.458420,110.353050 104.621902,106.706276 
	C101.457169,102.637550 101.167740,98.279709 104.541656,93.642929 
z"></path>
</svg></svg></g></svg>