<?xml version="1.0" standalone="no"?>
<!DOCTYPE svg PUBLIC "-//W3C//DTD SVG 20010904//EN"
 "http://www.w3.org/TR/2001/REC-SVG-20010904/DTD/svg10.dtd">
<svg version="1.0" xmlns="http://www.w3.org/2000/svg"
 width="575.000000pt" height="575.000000pt" viewBox="0 0 575.000000 575.000000"
 preserveAspectRatio="xMidYMid meet">
<metadata>
Created by potrace 1.14, written by Peter Selinger 2001-2017
</metadata>
<g transform="translate(0.000000,575.000000) scale(0.100000,-0.100000)"
fill="#000000" stroke="none">
<path d="M1229 5490 c-22 -12 -43 -34 -54 -57 -17 -36 -18 -100 -18 -1163 0
-1183 -2 -1149 42 -1191 45 -43 -9 -41 1641 -41 944 1 1587 5 1601 11 30 11
65 48 78 83 7 19 11 396 11 1143 0 1213 3 1154 -56 1205 l-29 25 -1590 2
c-1550 2 -1591 2 -1626 -17z m541 -278 c15 -13 22 -29 22 -55 0 -32 3 -36 22
-33 23 4 56 -10 68 -28 25 -37 -13 -92 -61 -88 l-29 2 2 -96 1 -97 35 -3 c121
-13 200 -100 200 -218 0 -98 -89 -195 -187 -201 -44 -4 -53 -12 -53 -50 0 -38
-20 -55 -64 -55 -29 0 -45 23 -49 71 -2 29 -6 33 -34 34 -39 2 -63 21 -63 49
0 38 23 59 68 60 22 0 38 4 35 8 -2 5 -4 49 -5 98 l0 90 -27 0 c-50 0 -118 30
-153 68 -43 46 -50 63 -54 132 -6 105 62 197 161 216 22 4 47 7 57 6 9 0 18 8
21 19 3 10 1 19 -3 19 -15 0 2 40 23 55 28 19 40 19 67 -3z m2455 -276 c22
-14 22 -18 21 -211 -1 -190 -2 -197 -23 -215 -28 -22 -67 -15 -80 13 -5 12 -9
64 -9 115 1 50 -1 92 -3 92 -5 0 -33 -31 -96 -105 -21 -25 -50 -58 -62 -73
-13 -15 -29 -33 -35 -41 -72 -87 -85 -98 -114 -96 -16 2 -85 35 -152 74 -71
41 -129 68 -135 63 -7 -4 -43 -41 -82 -82 -38 -41 -104 -111 -146 -155 -129
-135 -172 -181 -260 -275 -46 -50 -118 -126 -159 -169 -41 -42 -120 -125 -174
-183 -55 -59 -111 -110 -124 -113 -27 -7 -54 8 -104 58 -18 18 -103 96 -188
172 -85 77 -177 160 -203 185 -27 25 -53 46 -58 48 -8 3 -117 -58 -144 -80 -5
-5 -93 -60 -194 -123 -197 -123 -229 -134 -249 -90 -18 38 -15 51 16 74 15 12
32 24 37 29 25 19 198 122 206 122 5 0 9 3 9 8 0 4 20 18 45 32 25 14 45 28
45 32 0 5 4 8 10 8 5 0 48 25 95 55 46 30 89 55 95 55 5 0 10 4 10 9 0 16 63
-7 86 -31 18 -20 149 -140 208 -191 12 -10 59 -53 106 -96 47 -43 101 -92 121
-110 l37 -31 69 72 c81 85 127 133 266 281 56 60 129 137 162 172 33 34 110
115 170 180 228 242 262 275 284 275 13 0 66 -25 118 -55 53 -30 98 -55 100
-55 3 0 18 -9 34 -21 l30 -21 20 23 c11 13 37 44 59 69 21 25 63 74 93 109 52
60 64 86 34 76 -16 -5 -68 -13 -145 -21 -52 -6 -66 -4 -82 11 -20 18 -26 51
-12 71 9 14 40 26 77 30 17 2 59 8 95 14 36 5 90 12 120 16 30 3 56 7 57 8 11
9 80 4 98 -8z m-12 -1517 c15 -6 27 -14 28 -18 0 -3 2 -14 4 -23 2 -10 -5 -28
-15 -40 l-18 -23 -1372 0 c-1341 0 -1372 1 -1386 19 -16 23 -11 66 11 83 22
16 2707 18 2748 2z"/>
<path d="M1615 5000 c-76 -30 -78 -143 -4 -174 54 -23 64 -16 65 42 0 28 2 54
5 56 2 3 3 22 1 43 -3 31 -8 39 -25 40 -12 1 -31 -2 -42 -7z"/>
<path d="M1795 4688 c-2 -7 -3 -51 -2 -98 2 -93 4 -95 64 -73 17 6 37 21 43
33 14 27 20 90 9 90 -5 0 -9 7 -9 16 0 15 -55 44 -85 44 -9 0 -17 -6 -20 -12z"/>
<path d="M1167 2754 c-1 -2 -15 -5 -30 -8 -40 -7 -115 -45 -139 -70 -72 -76
-82 -204 -23 -281 25 -33 114 -85 180 -105 199 -60 248 -105 210 -194 -12 -29
-79 -54 -128 -48 -76 8 -126 45 -147 107 l-11 32 -84 -20 c-95 -23 -97 -27
-66 -93 67 -137 262 -202 448 -148 115 33 175 113 175 230 0 102 -39 154 -160
210 -40 19 -80 34 -88 34 -8 0 -51 14 -95 31 -89 34 -106 54 -95 111 12 63
112 93 191 59 35 -15 59 -44 81 -99 1 -2 38 6 104 23 8 2 20 4 25 4 33 3 37
18 17 62 -47 105 -150 161 -305 164 -32 0 -59 0 -60 -1z"/>
<path d="M2578 2755 c-2 -2 -21 -6 -43 -9 -60 -9 -155 -60 -205 -108 -40 -40
-93 -134 -106 -189 -3 -13 -7 -58 -9 -100 -7 -138 40 -257 135 -342 134 -120
370 -134 527 -31 167 109 227 349 138 550 -23 52 -117 164 -138 164 -6 0 -18
6 -26 13 -18 14 -83 38 -121 44 -34 5 -149 11 -152 8z m182 -191 c79 -43 120
-115 124 -219 7 -158 -90 -272 -239 -280 -66 -3 -154 30 -191 72 -89 100 -92
284 -6 381 72 80 211 101 312 46z"/>
<path d="M3487 2754 c-1 -2 -18 -6 -37 -9 -53 -9 -151 -58 -190 -96 -53 -51
-78 -91 -105 -168 -19 -56 -22 -85 -20 -157 4 -108 9 -132 41 -196 73 -145
224 -228 399 -220 113 5 227 53 292 126 36 39 77 115 68 124 -3 4 -40 18 -81
33 -50 18 -74 22 -74 14 0 -7 -18 -33 -40 -58 -93 -105 -264 -110 -364 -11
-65 65 -89 188 -57 292 20 66 83 134 143 154 65 22 167 15 215 -15 48 -31 93
-76 93 -94 0 -7 6 -16 14 -19 16 -6 156 47 156 59 0 22 -56 101 -98 138 -82
72 -158 100 -280 103 -40 1 -74 1 -75 0z"/>
<path d="M1610 2740 c-4 -3 -7 -36 -6 -75 l1 -70 97 0 97 0 0 -334 c0 -183 2
-336 5 -339 5 -4 87 -6 143 -3 l21 1 0 330 c0 182 3 334 7 338 3 4 48 7 98 7
l92 0 0 75 0 75 -273 0 c-151 0 -277 -2 -282 -5z"/>
<path d="M4059 2705 c-3 -201 0 -775 4 -781 4 -7 67 -9 155 -5 9 1 12 43 12
174 l0 173 30 2 c32 2 17 20 217 -255 l71 -98 102 1 c55 1 103 4 106 6 4 4
-10 24 -69 98 -11 15 -52 68 -190 249 -32 41 -57 77 -57 81 0 3 8 15 18 26 9
10 62 75 117 144 100 125 110 138 152 188 13 15 23 29 23 32 0 3 -45 5 -101 5
l-101 0 -60 -75 c-33 -41 -64 -76 -69 -78 -5 -2 -9 -8 -9 -14 0 -6 -15 -28
-32 -48 -18 -21 -46 -54 -62 -74 -20 -26 -36 -36 -57 -36 l-29 0 -2 162 -3
162 -82 1 -83 1 -1 -41z"/>
<path d="M1243 1749 c-13 -5 -23 -6 -23 -2 0 3 -7 0 -15 -7 -8 -7 -15 -10 -15
-6 0 3 -26 -7 -59 -23 -143 -73 -221 -206 -225 -386 -3 -114 55 -258 129 -323
36 -32 124 -85 144 -88 3 0 24 -6 46 -12 54 -16 218 -9 275 12 l45 16 56 -61
55 -60 70 27 c80 31 82 33 69 42 -6 4 -37 37 -69 75 -59 67 -59 67 -40 90 11
12 21 24 25 27 5 5 27 52 50 110 9 23 14 74 14 150 -1 109 -2 119 -34 188 -19
39 -38 72 -42 72 -5 0 -9 5 -9 10 0 6 -16 25 -36 43 -39 35 -124 90 -124 82 0
-3 -8 -1 -18 4 -11 6 -32 13 -48 17 -46 10 -197 12 -221 3z m175 -163 c140
-33 217 -187 176 -350 -33 -129 -147 -205 -285 -191 -144 15 -233 130 -225
294 5 88 29 143 84 191 67 59 153 79 250 56z"/>
<path d="M3038 1754 c-2 -2 -19 -6 -37 -9 -99 -17 -225 -114 -269 -205 -81
-169 -57 -383 57 -511 45 -51 84 -76 190 -123 13 -6 76 -11 140 -11 108 1 120
3 183 32 153 71 237 201 243 377 6 171 -59 305 -191 393 -50 33 -140 56 -226
58 -48 1 -89 1 -90 -1z m183 -180 c84 -32 146 -127 150 -229 6 -147 -65 -256
-185 -285 -192 -46 -340 89 -324 295 15 184 184 287 359 219z"/>
<path d="M1906 1741 c-6 -12 1 -597 8 -631 17 -84 83 -159 172 -195 50 -20 73
-23 159 -21 84 1 109 6 156 27 30 15 67 38 82 53 78 78 86 120 87 481 l1 292
-91 0 -90 0 0 -291 c0 -262 -2 -295 -19 -332 -30 -66 -99 -91 -193 -71 -24 4
-68 47 -81 77 -6 15 -12 135 -13 310 -1 157 -3 290 -3 295 -1 11 -169 17 -175
6z"/>
<path d="M3596 1741 c-2 -5 0 -116 3 -142 1 -6 24 -10 59 -9 31 1 75 1 97 1
l41 -1 -1 -327 c0 -181 1 -336 3 -345 4 -15 16 -18 88 -18 l84 0 0 345 c0 269
3 345 13 346 6 0 51 0 100 0 l87 -1 0 78 0 78 -285 0 c-157 1 -287 -2 -289 -5z"/>
<path d="M4276 1741 c-1 -3 -2 -193 -2 -421 l1 -415 246 -3 246 -2 0 75 c1 49
-3 75 -11 76 -6 1 -72 2 -146 4 -74 1 -140 3 -147 3 -8 2 -12 30 -11 95 l0 93
132 1 c72 1 134 2 139 2 4 1 7 35 7 76 l0 75 -140 0 -140 0 2 95 1 95 51 1
c28 0 98 1 156 2 l105 2 0 75 0 75 -243 1 c-134 0 -244 -2 -246 -5z"/>
<path d="M1333 532 c-37 -4 -35 4 -34 -135 0 -48 3 -91 6 -96 9 -16 126 -3
147 16 24 21 23 65 -2 88 -17 15 -17 20 -5 39 14 22 6 58 -15 71 -20 12 -65
20 -97 17z m75 -66 c4 -17 -34 -37 -54 -29 -13 5 -14 34 -2 50 12 16 52 1 56
-21z m10 -93 c4 -25 -25 -45 -55 -37 -14 4 -19 13 -17 32 1 15 2 28 3 29 1 1
16 1 34 0 25 -2 33 -7 35 -24z"/>
<path d="M1677 521 c-8 -9 -20 -26 -26 -38 -16 -31 -24 -29 -44 12 -14 29 -22
35 -48 35 l-30 0 20 -29 c12 -16 21 -34 21 -40 0 -6 4 -11 9 -11 12 0 33 -54
31 -82 -5 -62 -1 -78 23 -74 20 3 22 9 23 57 1 48 15 94 33 109 3 3 14 19 23
36 17 31 17 32 -2 37 -10 3 -25 -2 -33 -12z"/>
<path d="M2193 533 c-20 -4 -20 -7 18 -63 33 -51 39 -67 39 -113 0 -41 4 -56
16 -61 27 -10 34 3 34 60 0 46 6 63 35 107 41 60 41 63 15 70 -15 4 -26 -5
-48 -38 l-28 -43 -28 44 c-15 24 -29 43 -29 43 -1 -1 -12 -4 -24 -6z"/>
<path d="M2535 533 c-16 -3 -30 -29 -62 -116 -31 -82 -39 -113 -30 -119 17
-11 30 -5 44 22 9 19 19 24 50 23 60 -1 61 -2 68 -22 7 -22 34 -36 47 -23 10
10 -71 230 -86 235 -6 1 -20 1 -31 0z m29 -98 c4 -19 8 -38 9 -42 1 -5 -13 -8
-31 -9 -28 0 -31 2 -26 20 3 12 10 25 15 31 5 5 9 17 9 28 0 30 17 10 24 -28z"/>
<path d="M2914 532 c-6 -4 -10 -42 -9 -84 0 -43 -3 -78 -7 -78 -5 0 -8 7 -8
15 0 8 -4 15 -8 15 -5 0 -16 15 -25 33 -42 80 -53 92 -86 95 l-32 3 3 -118 c3
-110 4 -118 23 -118 18 0 20 7 20 82 0 72 2 80 15 68 8 -8 24 -31 35 -52 41
-77 59 -98 88 -99 18 0 27 5 28 15 0 9 1 60 2 114 2 81 -1 101 -14 107 -8 5
-20 6 -25 2z"/>
<path d="M3519 523 c-42 -16 -69 -58 -69 -107 0 -73 40 -115 114 -121 76 -6
126 42 126 120 0 92 -82 144 -171 108z m98 -51 c19 -16 27 -44 24 -79 -4 -49
-97 -72 -125 -31 -53 75 34 168 101 110z"/>
<path d="M3771 530 c-4 -3 -7 -12 -6 -20 0 -11 15 -16 60 -18 33 -2 55 -6 49
-10 -18 -12 -105 -140 -109 -160 -4 -25 9 -28 100 -27 66 1 70 2 71 23 1 19
-3 23 -25 22 -47 -3 -81 0 -81 8 0 4 10 19 23 34 37 45 81 112 83 125 1 7 -2
16 -8 19 -12 8 -147 11 -157 4z"/>
<path d="M4032 531 c-6 -3 -9 -57 -8 -120 1 -100 3 -114 18 -117 10 -1 21 2
24 7 5 8 8 130 5 215 -1 20 -20 27 -39 15z"/>
<path d="M4350 530 c-11 -7 -14 -28 -13 -87 l2 -78 -52 82 c-46 74 -55 83 -82
83 l-30 0 1 -112 c2 -138 0 -127 23 -125 23 1 27 20 26 106 -2 72 -2 72 63
-36 35 -59 59 -77 86 -67 15 6 16 218 1 233 -6 6 -16 7 -25 1z"/>
<path d="M1942 413 c3 -110 4 -118 23 -118 16 0 20 7 22 40 2 64 3 65 11 65 4
0 19 -21 32 -46 25 -45 53 -66 78 -57 8 4 2 20 -22 52 l-33 47 23 21 c27 24
31 59 10 89 -12 17 -27 21 -81 23 l-66 2 3 -118z m108 52 c0 -20 -21 -34 -52
-35 -9 0 -11 54 -3 62 3 3 17 3 30 0 18 -3 25 -11 25 -27z"/>
<path d="M3189 528 c-1 -2 -2 -53 -3 -115 -1 -104 0 -112 18 -117 27 -7 28 -5
29 53 0 28 3 51 7 51 4 0 16 -12 26 -26 45 -61 70 -83 89 -80 26 5 22 19 -21
72 -41 49 -40 61 11 119 l35 40 -27 3 c-20 3 -33 -3 -48 -21 -11 -13 -28 -34
-37 -46 -27 -32 -36 -26 -34 24 2 41 0 45 -21 45 -13 0 -24 -1 -24 -2z"/>
</g>
</svg>
